<?xml version="1.0" encoding="UTF-8"?><svg id="a" xmlns="http://www.w3.org/2000/svg" viewBox="0 0 199.01 73.13"><defs><style>.b{fill:#fff;}.c{fill:#fddf48;}</style></defs><g><path d="M79.74,29.06c.65,0,1.19,.21,1.62,.62,.43,.41,.64,.93,.64,1.54,0,.32-.06,.61-.17,.87-.11,.26-.25,.46-.41,.6-.16,.14-.32,.26-.48,.35-.16,.09-.29,.15-.4,.18l-.17,.05,1.79,3.15h-.58l-1.74-3.05h-2.36v3.05h-.53v-7.37h2.79Zm-2.26,.53v3.26h2.26c.52,0,.94-.15,1.26-.46,.32-.3,.48-.7,.48-1.17s-.16-.87-.48-1.17c-.32-.3-.74-.46-1.26-.46h-2.26Z"/><path d="M96.05,35.42c-.73,.74-1.61,1.1-2.65,1.1s-1.91-.37-2.64-1.1c-.73-.74-1.09-1.63-1.09-2.68s.36-1.94,1.09-2.68,1.61-1.1,2.64-1.1,1.92,.37,2.65,1.1c.73,.74,1.09,1.63,1.09,2.68s-.36,1.94-1.09,2.68Zm-.37-5c-.62-.63-1.38-.94-2.28-.94s-1.66,.31-2.28,.94-.93,1.4-.93,2.32,.31,1.69,.93,2.32c.62,.63,1.38,.94,2.28,.94s1.66-.31,2.28-.94c.62-.63,.93-1.4,.93-2.32s-.31-1.69-.93-2.32Z"/><path d="M109.16,32.53c.06,.02,.17,.09,.32,.19,.15,.1,.28,.22,.4,.34,.12,.13,.22,.31,.32,.54,.1,.23,.14,.49,.14,.76,0,.59-.21,1.08-.63,1.47-.42,.39-.96,.58-1.64,.58h-2.84v-7.37h2.74c.6,0,1.08,.17,1.45,.52,.37,.35,.55,.79,.55,1.32,0,.23-.03,.44-.1,.63-.07,.19-.15,.34-.24,.46s-.18,.21-.27,.28c-.09,.08-.17,.13-.23,.16l-.1,.05,.14,.06Zm-3.4-2.95v2.68h2.21c.47,0,.83-.12,1.09-.36,.26-.24,.38-.58,.38-1,0-.4-.13-.72-.39-.96-.26-.24-.62-.36-1.08-.36h-2.21Zm2.31,6.31c.54,0,.97-.14,1.27-.42,.31-.28,.46-.65,.46-1.1,0-.48-.15-.87-.46-1.15-.31-.29-.73-.43-1.28-.43h-2.31v3.11h2.31Z"/><path d="M123.52,35.9v.52h-5.05v-7.37h4.95v.53h-4.42v2.73h3.57v.53h-3.57v3.05h4.52Z"/><path d="M134.19,29.06c.65,0,1.19,.21,1.62,.62,.43,.41,.64,.93,.64,1.54,0,.32-.06,.61-.17,.87-.11,.26-.25,.46-.41,.6-.16,.14-.32,.26-.48,.35-.16,.09-.29,.15-.4,.18l-.17,.05,1.79,3.15h-.58l-1.74-3.05h-2.36v3.05h-.53v-7.37h2.79Zm-2.26,.53v3.26h2.26c.52,0,.94-.15,1.26-.46,.32-.3,.48-.7,.48-1.17s-.16-.87-.48-1.17c-.32-.3-.74-.46-1.26-.46h-2.26Z"/><path d="M148.85,29.06v.53h-2.42v6.84h-.52v-6.84h-2.42v-.53h5.36Z"/><path d="M159.94,33.6c-.28-.22-.62-.4-1.03-.52-.4-.12-.81-.25-1.21-.39-.4-.14-.74-.35-1.02-.65-.28-.3-.42-.67-.42-1.14,0-.54,.21-1,.64-1.38,.43-.38,.99-.57,1.67-.57,.25,0,.5,.03,.74,.1,.24,.06,.44,.14,.59,.22s.3,.17,.42,.26c.12,.09,.21,.16,.27,.23l.08,.09-.36,.37s-.04-.05-.07-.08c-.03-.03-.1-.09-.21-.17-.11-.08-.22-.16-.35-.23-.12-.07-.28-.13-.49-.18s-.41-.08-.62-.08c-.56,0-1,.13-1.31,.4-.32,.27-.47,.61-.47,1.02,0,.36,.14,.66,.42,.88,.28,.22,.62,.4,1.02,.52,.4,.12,.81,.25,1.21,.39s.74,.35,1.03,.65c.28,.3,.42,.67,.42,1.14,0,.6-.22,1.09-.65,1.47-.43,.39-1.02,.58-1.77,.58-.3,0-.59-.04-.87-.12-.28-.08-.51-.17-.69-.27-.18-.1-.34-.21-.47-.32s-.23-.2-.29-.28l-.1-.12,.37-.36s.04,.06,.07,.11,.11,.12,.24,.23c.12,.11,.26,.2,.41,.29,.15,.08,.34,.16,.58,.23s.49,.1,.76,.1c.61,0,1.08-.14,1.4-.42,.33-.28,.49-.65,.49-1.11,0-.36-.14-.66-.42-.88Z"/><path d="M174.78,35.42c-.73,.74-1.61,1.1-2.65,1.1s-1.91-.37-2.64-1.1c-.73-.74-1.09-1.63-1.09-2.68s.36-1.94,1.09-2.68,1.61-1.1,2.64-1.1,1.92,.37,2.65,1.1c.73,.74,1.09,1.63,1.09,2.68s-.36,1.94-1.09,2.68Zm-.37-5c-.62-.63-1.38-.94-2.28-.94s-1.66,.31-2.28,.94-.93,1.4-.93,2.32,.31,1.69,.93,2.32c.62,.63,1.38,.94,2.28,.94s1.66-.31,2.28-.94c.62-.63,.93-1.4,.93-2.32s-.31-1.69-.93-2.32Z"/><path d="M189.79,29.06v7.37h-.42l-4.89-6.36v6.36h-.53v-7.37h.42l4.89,6.36v-6.36h.52Z"/></g><g><path d="M81.15,46.65h-1.05v-1.99h-2.09v1.99h-1.05v-4.89h1.05v1.96h2.09v-1.96h1.05v4.89Z"/><path d="M88.17,45.71v.94h-3.67v-4.89h3.6v.94h-2.55v.98h1.99v.94h-1.99v1.08h2.62Z"/><path d="M92.21,45.5l-.42,1.15h-1.12l1.92-4.89h1.12l1.92,4.89h-1.12l-.42-1.15h-1.89Zm.95-2.51l-.6,1.61h1.19l-.59-1.61Z"/><path d="M101.36,41.76v.94h-1.4v3.95h-1.05v-3.95h-1.4v-.94h3.84Z"/><path d="M104.22,41.76h1.05v4.89h-1.05v-4.89Z"/><path d="M112.98,41.76v4.89h-.91l-2.41-3.11v3.11h-1.05v-4.89h.91l2.41,3.11v-3.11h1.05Z"/><path d="M120.83,44v1.82s-.05,.06-.09,.1c-.04,.04-.13,.12-.26,.23s-.28,.2-.43,.29c-.15,.08-.35,.16-.59,.23-.24,.07-.5,.1-.76,.1-.75,0-1.38-.25-1.89-.75-.51-.5-.77-1.1-.77-1.8s.26-1.3,.77-1.8c.51-.5,1.14-.75,1.89-.75,.26,0,.5,.03,.73,.1,.23,.07,.42,.15,.57,.24s.28,.19,.4,.29,.2,.18,.25,.24l.08,.1-.67,.67s-.03-.04-.06-.08c-.02-.03-.08-.09-.16-.17s-.17-.15-.27-.21-.23-.12-.39-.17c-.16-.05-.32-.08-.49-.08-.46,0-.84,.15-1.15,.46-.31,.31-.46,.69-.46,1.15s.15,.84,.46,1.15,.69,.46,1.15,.46c.22,0,.42-.03,.6-.1,.18-.06,.31-.13,.38-.2l.11-.09v-.67h-.87v-.77h1.92Z"/><path d="M131.23,45.92l.17-.03v.8c-.12,.07-.25,.11-.42,.11s-.31-.04-.45-.12c-.15-.08-.26-.16-.33-.24l-.1-.12s-.08,.08-.14,.14c-.06,.05-.2,.13-.41,.22-.21,.09-.44,.14-.68,.14-.46,0-.83-.13-1.11-.38-.28-.25-.42-.56-.42-.92,0-.17,.03-.33,.09-.49,.06-.16,.14-.3,.23-.4,.09-.11,.18-.21,.27-.29,.09-.08,.17-.15,.23-.19l.09-.06s-.1-.11-.17-.19c-.07-.08-.16-.23-.28-.44-.12-.21-.17-.41-.17-.59,0-.33,.12-.62,.37-.86,.25-.24,.55-.36,.92-.36s.69,.11,.93,.34c.24,.23,.36,.51,.36,.85,0,.13-.03,.26-.08,.4-.06,.14-.12,.25-.2,.35-.08,.1-.15,.19-.23,.26s-.15,.14-.21,.18l-.08,.06,.73,.91c.14-.21,.21-.45,.21-.73h.87c0,.25-.03,.49-.1,.72s-.14,.41-.21,.52l-.11,.16c.12,.19,.26,.28,.42,.28Zm-1.94-.04c.12-.05,.2-.09,.25-.14l.08-.07-.84-1.01s-.08,.06-.13,.11-.13,.14-.22,.27c-.09,.13-.14,.26-.14,.39,0,.16,.05,.29,.16,.38,.11,.09,.26,.14,.47,.14,.13,0,.25-.02,.36-.07Zm-.06-3.3c-.08-.08-.18-.12-.3-.12-.14,0-.25,.04-.33,.12-.08,.08-.12,.18-.12,.3,0,.09,.04,.2,.12,.31,.08,.12,.15,.21,.23,.28l.11,.11s.07-.06,.12-.11c.05-.05,.11-.14,.19-.26,.08-.12,.11-.23,.11-.33,0-.12-.04-.22-.12-.3Z"/><path d="M139.85,41.76c.5,0,.92,.16,1.25,.47,.33,.32,.5,.71,.5,1.17s-.17,.85-.49,1.17c-.33,.31-.75,.47-1.25,.47h-1.01v1.61h-1.05v-4.89h2.06Zm-1.01,.94v1.4h.98c.21,0,.38-.07,.52-.2s.21-.3,.21-.49-.07-.36-.21-.5-.31-.2-.52-.2h-.98Z"/><path d="M144.63,46.65v-4.89h1.05v3.95h2.27v.94h-3.32Z"/><path d="M153.43,45.48c.21-.22,.32-.49,.32-.82v-2.9h1.05v2.9c0,.6-.2,1.09-.61,1.5-.4,.4-.91,.6-1.52,.6s-1.12-.2-1.52-.6c-.41-.4-.61-.9-.61-1.5v-2.9h1.05v2.9c0,.33,.11,.6,.32,.82,.21,.22,.47,.33,.77,.33s.55-.11,.76-.33Z"/><path d="M162.42,41.76h.93v4.89h-1.05v-3.26l-1.57,2-1.57-1.99v3.25h-1.05v-4.89h.95l1.67,2.13,1.69-2.13Z"/><path d="M166.69,46.65v-4.89h2.1c.44,0,.81,.13,1.1,.39,.29,.26,.44,.56,.44,.9,0,.13-.02,.25-.05,.37-.04,.12-.08,.21-.14,.29-.06,.08-.11,.14-.17,.2-.06,.06-.1,.09-.14,.12l-.06,.03s.05,.02,.09,.04,.1,.06,.19,.13c.09,.07,.18,.14,.25,.22s.13,.19,.19,.33c.06,.14,.09,.28,.09,.44,0,.39-.16,.73-.47,1.01-.31,.28-.71,.42-1.19,.42h-2.22Zm1.05-4.02v1.05h.98c.17,0,.31-.05,.41-.14s.15-.22,.15-.38-.05-.29-.15-.38-.24-.14-.41-.14h-.98Zm1.12,3.15c.19,0,.35-.06,.48-.18,.13-.12,.19-.27,.19-.45s-.06-.33-.19-.45c-.13-.12-.28-.18-.48-.18h-1.12v1.26h1.12Z"/><path d="M173.64,41.76h1.05v4.89h-1.05v-4.89Z"/><path d="M182.4,41.76v4.89h-.91l-2.41-3.11v3.11h-1.05v-4.89h.91l2.41,3.11v-3.11h1.05Z"/><path d="M190.25,44v1.82s-.05,.06-.09,.1c-.04,.04-.13,.12-.26,.23s-.28,.2-.43,.29c-.15,.08-.35,.16-.59,.23-.24,.07-.5,.1-.76,.1-.75,0-1.38-.25-1.89-.75-.51-.5-.77-1.1-.77-1.8s.26-1.3,.77-1.8c.51-.5,1.14-.75,1.89-.75,.26,0,.5,.03,.73,.1,.23,.07,.42,.15,.57,.24s.28,.19,.4,.29,.2,.18,.25,.24l.08,.1-.67,.67s-.03-.04-.06-.08c-.02-.03-.08-.09-.16-.17s-.17-.15-.27-.21-.23-.12-.39-.17c-.16-.05-.32-.08-.49-.08-.46,0-.84,.15-1.15,.46-.31,.31-.46,.69-.46,1.15s.15,.84,.46,1.15,.69,.46,1.15,.46c.22,0,.42-.03,.6-.1,.18-.06,.31-.13,.38-.2l.11-.09v-.67h-.87v-.77h1.92Z"/></g><g><path class="c" d="M33.81,49.56c-.04-.45-.22-.88-.56-1.23h0l-1.45-1.46-1.45,1.46h0c-.45,.46-.62,1.09-.54,1.68h0c.06,.43,.24,.84,.57,1.17,.39,.4,.91,.59,1.43,.59-.16,0-.32-.06-.44-.18-.24-.24-.25-.64,0-.88h0l.45-.45,.45,.45h0c.24,.25,.24,.64,0,.88-.12,.12-.28,.18-.44,.19,.52,0,1.03-.2,1.43-.6,.44-.44,.62-1.03,.57-1.61v-.02Z"/><path class="b" d="M31.98,52.65h0Z"/><path d="M35.52,62.21c-11.99-1.15-21.69-10.71-23.06-22.68h0c-.34-2.98-.16-5.86,.45-8.58,.05-.22-.12-.44-.35-.44h-2.88c-.17,0-.32,.12-.36,.29-.62,3.11-.76,6.39-.3,9.77h0c1.85,13.59,13.13,24.19,26.8,25.21h0c17.36,1.29,31.86-12.65,31.52-29.81-.3-15.25-12.51-27.88-27.74-28.67-13.53-.7-25.2,7.83-29.29,19.84l23.67-.08h7.36c1.29,0,2.38,.44,3.25,1.31,.87,.87,1.31,1.96,1.31,3.26s-.44,2.39-1.31,3.26-1.96,1.31-3.25,1.31h-11.17c-.31,0-.56,.25-.56,.56v10.23s2.18-2.03,2.18-2.03l2.19,2.03v-6.26c0-.31,.25-.56,.56-.56h5.48c.2,0,.39,.11,.49,.29l5.64,10.16c.1,.18,.29,.29,.49,.29h3.48c.43,0,.7-.46,.49-.84l-5.58-9.75c-.16-.29-.05-.65,.26-.79,.39-.16,.85-.45,1.4-.87,.54-.43,1.09-.93,1.63-1.49,.54-.57,1.01-1.35,1.4-2.34,.39-.99,.58-2.05,.58-3.19,0-2.42-.85-4.45-2.54-6.1-1.7-1.64-3.83-2.47-6.41-2.47H16.1c5-8.11,14.35-13.26,24.77-12.14,12.3,1.31,22.01,11.42,22.89,23.76,1.12,15.9-12.27,29.05-28.25,27.51"/></g></svg>