<?xml version="1.0" encoding="UTF-8"?><svg id="a" xmlns="http://www.w3.org/2000/svg" viewBox="0 0 72.91 44.83"><defs><style>.b{fill:#fff;}</style></defs><g><path class="b" d="M34.73,21.12c-.02-.18-.09-.36-.23-.5h0l-.59-.59-.59,.6h0c-.18,.19-.25,.44-.22,.69h0c.02,.17,.1,.34,.23,.48,.16,.16,.37,.24,.58,.24-.06,0-.13-.02-.18-.07-.1-.1-.1-.26,0-.36h0l.18-.18,.18,.18h0c.1,.1,.1,.26,0,.36-.05,.05-.11,.08-.18,.08,.21,0,.42-.08,.58-.24,.18-.18,.25-.42,.23-.66h0Z"/><path class="b" d="M35.42,26.27c-4.88-.47-8.83-4.36-9.39-9.23h0c-.14-1.21-.07-2.39,.18-3.49,.02-.09-.05-.18-.14-.18h-1.17c-.07,0-.13,.05-.15,.12-.25,1.27-.31,2.6-.12,3.98h0c.75,5.53,5.34,9.85,10.91,10.26h0c7.07,.52,12.97-5.15,12.83-12.14-.12-6.21-5.09-11.35-11.29-11.67-5.51-.29-10.26,3.19-11.93,8.08l9.64-.03h3c.53,0,.97,.18,1.32,.53,.36,.36,.53,.8,.53,1.33s-.18,.97-.53,1.33-.8,.53-1.32,.53h-4.55c-.13,0-.23,.1-.23,.23v4.17l.89-.83,.89,.83v-2.55c0-.13,.1-.23,.23-.23h2.23c.08,0,.16,.04,.2,.12l2.3,4.14c.04,.07,.12,.12,.2,.12h1.42c.17,0,.28-.19,.2-.34l-2.27-3.97c-.07-.12-.02-.27,.1-.32,.16-.06,.35-.18,.57-.36,.22-.17,.44-.38,.66-.61,.22-.23,.41-.55,.57-.95,.16-.4,.24-.84,.24-1.3,0-.99-.35-1.81-1.04-2.48-.69-.67-1.56-1-2.61-1h-10.28c2.03-3.3,5.84-5.4,10.09-4.94,5.01,.53,8.96,4.65,9.32,9.67,.46,6.47-5,11.83-11.5,11.2"/></g><g><g><path class="b" d="M7.82,31.5c.35,0,.63,.11,.86,.33,.23,.22,.34,.49,.34,.82,0,.17-.03,.33-.09,.46-.06,.14-.13,.25-.22,.32-.09,.07-.17,.14-.26,.19-.08,.05-.16,.08-.21,.1l-.09,.02,.95,1.68h-.31l-.92-1.62h-1.26v1.62h-.28v-3.92h1.48Zm-1.2,.28v1.73h1.2c.28,0,.5-.08,.67-.24,.17-.16,.25-.37,.25-.62s-.08-.46-.25-.62c-.17-.16-.39-.24-.67-.24h-1.2Z"/><path class="b" d="M16.49,34.88c-.39,.39-.85,.59-1.41,.59s-1.02-.2-1.4-.59c-.39-.39-.58-.87-.58-1.42s.19-1.03,.58-1.43,.86-.59,1.4-.59,1.02,.2,1.41,.59c.39,.39,.58,.87,.58,1.43s-.19,1.03-.58,1.42Zm-.2-2.66c-.33-.33-.73-.5-1.21-.5s-.88,.17-1.21,.5-.5,.74-.5,1.23,.17,.9,.5,1.23c.33,.33,.73,.5,1.21,.5s.88-.17,1.21-.5c.33-.33,.5-.75,.5-1.23s-.17-.9-.5-1.23Z"/><path class="b" d="M23.46,33.35s.09,.05,.17,.1c.08,.05,.15,.12,.21,.18,.06,.07,.12,.16,.17,.29,.05,.12,.08,.26,.08,.41,0,.31-.11,.57-.33,.78-.22,.21-.51,.31-.87,.31h-1.51v-3.92h1.45c.32,0,.57,.09,.77,.28,.2,.19,.29,.42,.29,.7,0,.12-.02,.23-.05,.33-.04,.1-.08,.18-.13,.24s-.1,.11-.15,.15c-.05,.04-.09,.07-.12,.08l-.05,.03,.07,.03Zm-1.81-1.57v1.43h1.17c.25,0,.44-.06,.58-.19,.14-.13,.2-.31,.2-.53,0-.21-.07-.38-.21-.51-.14-.13-.33-.19-.57-.19h-1.17Zm1.23,3.36c.29,0,.51-.07,.68-.22,.16-.15,.25-.34,.25-.59,0-.26-.08-.46-.24-.61-.16-.15-.39-.23-.68-.23h-1.23v1.65h1.23Z"/><path class="b" d="M31.09,35.14v.28h-2.68v-3.92h2.63v.28h-2.35v1.45h1.9v.28h-1.9v1.62h2.4Z"/><path class="b" d="M36.77,31.5c.35,0,.63,.11,.86,.33,.23,.22,.34,.49,.34,.82,0,.17-.03,.33-.09,.46-.06,.14-.13,.25-.22,.32-.09,.07-.17,.14-.26,.19-.08,.05-.16,.08-.21,.1l-.09,.02,.95,1.68h-.31l-.92-1.62h-1.26v1.62h-.28v-3.92h1.48Zm-1.2,.28v1.73h1.2c.28,0,.5-.08,.67-.24,.17-.16,.25-.37,.25-.62s-.08-.46-.25-.62c-.17-.16-.39-.24-.67-.24h-1.2Z"/><path class="b" d="M44.56,31.5v.28h-1.29v3.63h-.28v-3.63h-1.29v-.28h2.85Z"/><path class="b" d="M50.46,33.91c-.15-.12-.33-.21-.55-.28-.22-.07-.43-.13-.64-.21-.21-.07-.4-.19-.54-.34-.15-.16-.22-.36-.22-.6,0-.29,.11-.53,.34-.73,.23-.2,.52-.3,.89-.3,.13,0,.27,.02,.39,.05,.13,.03,.23,.07,.32,.12s.16,.09,.22,.14c.07,.05,.11,.09,.14,.12l.04,.05-.19,.2s-.02-.02-.04-.04c-.02-.02-.05-.05-.11-.09-.06-.04-.12-.08-.18-.12-.07-.04-.15-.07-.26-.1s-.22-.04-.33-.04c-.3,0-.53,.07-.7,.21-.17,.14-.25,.32-.25,.54,0,.19,.07,.35,.22,.47,.15,.12,.33,.21,.54,.28,.21,.07,.43,.13,.64,.21s.4,.19,.55,.34c.15,.16,.22,.36,.22,.6,0,.32-.12,.58-.35,.78-.23,.2-.54,.31-.94,.31-.16,0-.31-.02-.46-.06-.15-.04-.27-.09-.37-.14-.09-.06-.18-.11-.25-.17s-.12-.11-.15-.15l-.05-.06,.2-.19s.02,.03,.04,.06,.06,.06,.13,.12c.07,.06,.14,.11,.22,.15,.08,.04,.18,.08,.31,.12s.26,.05,.4,.05c.32,0,.57-.07,.75-.22,.17-.15,.26-.34,.26-.59,0-.19-.07-.35-.22-.47Z"/><path class="b" d="M58.34,34.88c-.39,.39-.85,.59-1.41,.59s-1.02-.2-1.4-.59c-.39-.39-.58-.87-.58-1.42s.19-1.03,.58-1.43,.86-.59,1.4-.59,1.02,.2,1.41,.59c.39,.39,.58,.87,.58,1.43s-.19,1.03-.58,1.42Zm-.2-2.66c-.33-.33-.73-.5-1.21-.5s-.88,.17-1.21,.5-.5,.74-.5,1.23,.17,.9,.5,1.23c.33,.33,.73,.5,1.21,.5s.88-.17,1.21-.5c.33-.33,.5-.75,.5-1.23s-.17-.9-.5-1.23Z"/><path class="b" d="M66.32,31.5v3.92h-.22l-2.6-3.38v3.38h-.28v-3.92h.22l2.6,3.38v-3.38h.28Z"/></g><g><path class="b" d="M8.57,40.85h-.56v-1.06h-1.11v1.06h-.56v-2.6h.56v1.04h1.11v-1.04h.56v2.6Z"/><path class="b" d="M12.3,40.35v.5h-1.95v-2.6h1.91v.5h-1.35v.52h1.06v.5h-1.06v.58h1.39Z"/><path class="b" d="M14.45,40.24l-.22,.61h-.59l1.02-2.6h.59l1.02,2.6h-.59l-.22-.61h-1Zm.5-1.34l-.32,.85h.63l-.32-.85Z"/><path class="b" d="M19.31,38.25v.5h-.74v2.1h-.56v-2.1h-.74v-.5h2.04Z"/><path class="b" d="M20.83,38.25h.56v2.6h-.56v-2.6Z"/><path class="b" d="M25.49,38.25v2.6h-.48l-1.28-1.65v1.65h-.56v-2.6h.48l1.28,1.65v-1.65h.56Z"/><path class="b" d="M29.67,39.44v.97s-.02,.03-.05,.05c-.02,.02-.07,.06-.14,.12s-.15,.11-.23,.15c-.08,.04-.19,.08-.32,.12-.13,.04-.26,.05-.4,.05-.4,0-.73-.13-1-.4-.27-.27-.41-.58-.41-.96s.14-.69,.41-.96c.27-.27,.61-.4,1-.4,.14,0,.27,.02,.39,.05,.12,.04,.22,.08,.3,.13s.15,.1,.21,.15,.1,.09,.13,.13l.04,.05-.35,.35-.03-.04s-.04-.05-.09-.09-.09-.08-.14-.11-.12-.06-.21-.09c-.08-.03-.17-.04-.26-.04-.24,0-.45,.08-.61,.25-.16,.16-.25,.37-.25,.61s.08,.45,.25,.61,.37,.25,.61,.25c.12,0,.22-.02,.32-.05,.1-.03,.16-.07,.2-.1l.06-.05v-.35h-.46v-.41h1.02Z"/><path class="b" d="M35.19,40.46l.09-.02v.43c-.06,.04-.14,.06-.22,.06s-.16-.02-.24-.07c-.08-.04-.14-.09-.17-.13l-.05-.07s-.04,.04-.07,.07c-.03,.03-.11,.07-.22,.11-.11,.05-.23,.07-.36,.07-.24,0-.44-.07-.59-.2-.15-.13-.23-.3-.23-.49,0-.09,.02-.18,.05-.26,.03-.09,.07-.16,.12-.22,.05-.06,.09-.11,.14-.15,.05-.04,.09-.08,.12-.1l.05-.03s-.05-.06-.09-.1c-.04-.04-.09-.12-.15-.24-.06-.11-.09-.22-.09-.31,0-.18,.07-.33,.2-.46,.13-.13,.29-.19,.49-.19s.37,.06,.49,.18c.13,.12,.19,.27,.19,.45,0,.07-.01,.14-.04,.21-.03,.07-.06,.13-.11,.19-.04,.05-.08,.1-.12,.14s-.08,.07-.11,.1l-.04,.03,.39,.48c.07-.11,.11-.24,.11-.39h.46c0,.13-.02,.26-.06,.38s-.07,.22-.11,.27l-.06,.09c.06,.1,.14,.15,.22,.15Zm-1.03-.02c.06-.02,.11-.05,.14-.07l.04-.04-.45-.54s-.04,.03-.07,.06-.07,.07-.12,.14c-.05,.07-.07,.14-.07,.21,0,.09,.03,.16,.09,.2,.06,.05,.14,.07,.25,.07,.07,0,.13-.01,.19-.04Zm-.03-1.76s-.1-.06-.16-.06c-.07,0-.13,.02-.18,.06-.04,.04-.07,.09-.07,.16,0,.05,.02,.1,.06,.17,.04,.06,.08,.11,.12,.15l.06,.06s.04-.03,.06-.06c.03-.03,.06-.07,.1-.14,.04-.07,.06-.12,.06-.17,0-.06-.02-.12-.06-.16Z"/><path class="b" d="M39.78,38.25c.27,0,.49,.08,.66,.25,.18,.17,.26,.37,.26,.62s-.09,.45-.26,.62c-.18,.17-.4,.25-.67,.25h-.54v.85h-.56v-2.6h1.1Zm-.54,.5v.74h.52c.11,0,.2-.04,.28-.11s.11-.16,.11-.26-.04-.19-.11-.26-.17-.11-.28-.11h-.52Z"/><path class="b" d="M42.32,40.85v-2.6h.56v2.1h1.21v.5h-1.76Z"/><path class="b" d="M46.99,40.23c.11-.12,.17-.26,.17-.44v-1.54h.56v1.54c0,.32-.11,.58-.32,.8-.22,.21-.49,.32-.81,.32s-.59-.11-.81-.32c-.22-.21-.32-.48-.32-.8v-1.54h.56v1.54c0,.17,.06,.32,.17,.44,.11,.12,.25,.18,.41,.18s.29-.06,.41-.18Z"/><path class="b" d="M51.77,38.25h.49v2.6h-.56v-1.73l-.84,1.06-.83-1.06v1.73h-.56v-2.6h.5l.89,1.13,.9-1.13Z"/><path class="b" d="M54.04,40.85v-2.6h1.12c.24,0,.43,.07,.58,.21,.15,.14,.23,.3,.23,.48,0,.07,0,.13-.03,.2-.02,.06-.04,.11-.07,.16-.03,.04-.06,.08-.09,.11-.03,.03-.05,.05-.07,.06l-.03,.02s.03,.01,.05,.02,.05,.03,.1,.07c.05,.04,.09,.07,.13,.12s.07,.1,.1,.17c.03,.07,.05,.15,.05,.23,0,.21-.08,.39-.25,.54-.17,.15-.38,.23-.63,.23h-1.18Zm.56-2.14v.56h.52c.09,0,.16-.03,.22-.08s.08-.12,.08-.2-.03-.15-.08-.2-.13-.08-.22-.08h-.52Zm.59,1.67c.1,0,.19-.03,.25-.1,.07-.06,.1-.14,.1-.24s-.03-.17-.1-.24c-.07-.06-.15-.1-.25-.1h-.59v.67h.59Z"/><path class="b" d="M57.74,38.25h.56v2.6h-.56v-2.6Z"/><path class="b" d="M62.39,38.25v2.6h-.48l-1.28-1.65v1.65h-.56v-2.6h.48l1.28,1.65v-1.65h.56Z"/><path class="b" d="M66.57,39.44v.97s-.02,.03-.05,.05c-.02,.02-.07,.06-.14,.12s-.15,.11-.23,.15c-.08,.04-.19,.08-.32,.12-.13,.04-.26,.05-.4,.05-.4,0-.73-.13-1-.4-.27-.27-.41-.58-.41-.96s.14-.69,.41-.96c.27-.27,.61-.4,1-.4,.14,0,.27,.02,.39,.05,.12,.04,.22,.08,.3,.13s.15,.1,.21,.15,.1,.09,.13,.13l.04,.05-.35,.35-.03-.04s-.04-.05-.09-.09-.09-.08-.14-.11-.12-.06-.21-.09c-.08-.03-.17-.04-.26-.04-.24,0-.45,.08-.61,.25-.16,.16-.25,.37-.25,.61s.08,.45,.25,.61,.37,.25,.61,.25c.12,0,.22-.02,.32-.05,.1-.03,.16-.07,.2-.1l.06-.05v-.35h-.46v-.41h1.02Z"/></g></g></svg>